<?xml version="1.0" encoding="UTF-8" standalone="no"?>
<!DOCTYPE svg PUBLIC "-//W3C//DTD SVG 1.1//EN"
 "http://www.w3.org/Graphics/SVG/1.1/DTD/svg11.dtd">
<!-- Generated by graphviz version 2.40.1 (20161225.0304)
 -->
<!-- Title: %3 Pages: 1 -->
<svg width="1015pt" height="404pt"
 viewBox="0.00 0.00 1014.79 404.00" xmlns="http://www.w3.org/2000/svg" xmlns:xlink="http://www.w3.org/1999/xlink">
<g id="graph0" class="graph" transform="scale(1 1) rotate(0) translate(4 400)">
<title>%3</title>
<polygon fill="#ffffff" stroke="transparent" points="-4,4 -4,-400 1010.7901,-400 1010.7901,4 -4,4"/>
<!-- Foldable -->
<g id="node1" class="node">
<title>Foldable</title>
<ellipse fill="none" stroke="#000000" cx="484.7947" cy="-378" rx="41.6928" ry="18"/>
<text text-anchor="middle" x="484.7947" y="-374.3" font-family="Times,serif" font-size="14.00" fill="#000000">Foldable</text>
</g>
<!-- Functor -->
<g id="node2" class="node">
<title>Functor</title>
<ellipse fill="none" stroke="#000000" cx="582.7947" cy="-378" rx="38.1938" ry="18"/>
<text text-anchor="middle" x="582.7947" y="-374.3" font-family="Times,serif" font-size="14.00" fill="#000000">Functor</text>
</g>
<!-- Applicative -->
<g id="node3" class="node">
<title>Applicative</title>
<ellipse fill="none" stroke="#000000" cx="406.7947" cy="-306" rx="51.9908" ry="18"/>
<text text-anchor="middle" x="406.7947" y="-302.3" font-family="Times,serif" font-size="14.00" fill="#000000">Applicative</text>
</g>
<!-- Functor&#45;&gt;Applicative -->
<g id="edge1" class="edge">
<title>Functor&#45;&gt;Applicative</title>
<path fill="none" stroke="#000000" d="M553.7319,-366.1107C525.5063,-354.5638 482.3095,-336.8924 450.0467,-323.694"/>
<polygon fill="#000000" stroke="#000000" points="450.9945,-320.3002 440.4138,-319.7533 448.3441,-326.7791 450.9945,-320.3002"/>
</g>
<!-- Monoidal -->
<g id="node4" class="node">
<title>Monoidal</title>
<ellipse fill="none" stroke="#000000" cx="655.7947" cy="-306" rx="45.4919" ry="18"/>
<text text-anchor="middle" x="655.7947" y="-302.3" font-family="Times,serif" font-size="14.00" fill="#000000">Monoidal</text>
</g>
<!-- Functor&#45;&gt;Monoidal -->
<g id="edge2" class="edge">
<title>Functor&#45;&gt;Monoidal</title>
<path fill="none" stroke="#000000" d="M599.3595,-361.6621C608.8376,-352.3138 620.9028,-340.4139 631.4426,-330.0185"/>
<polygon fill="#000000" stroke="#000000" points="634.1269,-332.287 638.7888,-322.7729 629.2114,-327.3032 634.1269,-332.287"/>
</g>
<!-- MonadFree -->
<g id="node15" class="node">
<title>MonadFree</title>
<ellipse fill="none" stroke="#000000" cx="954.7947" cy="-162" rx="51.9908" ry="18"/>
<text text-anchor="middle" x="954.7947" y="-158.3" font-family="Times,serif" font-size="14.00" fill="#000000">MonadFree</text>
</g>
<!-- Functor&#45;&gt;MonadFree -->
<g id="edge13" class="edge">
<title>Functor&#45;&gt;MonadFree</title>
<path fill="none" stroke="#000000" d="M581.722,-359.853C581.5433,-339.88 584.3548,-307.9646 601.7947,-288 622.4986,-264.2989 813.4873,-204.4677 905.5804,-176.6454"/>
<polygon fill="#000000" stroke="#000000" points="906.6752,-179.971 915.2403,-173.7349 904.6558,-173.2686 906.6752,-179.971"/>
</g>
<!-- CommutativeApplicative -->
<g id="node5" class="node">
<title>CommutativeApplicative</title>
<ellipse fill="none" stroke="#000000" cx="141.7947" cy="-234" rx="100.9827" ry="18"/>
<text text-anchor="middle" x="141.7947" y="-230.3" font-family="Times,serif" font-size="14.00" fill="#000000">CommutativeApplicative</text>
</g>
<!-- Applicative&#45;&gt;CommutativeApplicative -->
<g id="edge3" class="edge">
<title>Applicative&#45;&gt;CommutativeApplicative</title>
<path fill="none" stroke="#000000" d="M365.6792,-294.829C323.2924,-283.3126 256.5788,-265.1866 206.9899,-251.7134"/>
<polygon fill="#000000" stroke="#000000" points="207.8806,-248.3286 197.3127,-249.0841 206.0452,-255.0837 207.8806,-248.3286"/>
</g>
<!-- Alternative -->
<g id="node6" class="node">
<title>Alternative</title>
<ellipse fill="none" stroke="#000000" cx="310.7947" cy="-234" rx="50.0912" ry="18"/>
<text text-anchor="middle" x="310.7947" y="-230.3" font-family="Times,serif" font-size="14.00" fill="#000000">Alternative</text>
</g>
<!-- Applicative&#45;&gt;Alternative -->
<g id="edge4" class="edge">
<title>Applicative&#45;&gt;Alternative</title>
<path fill="none" stroke="#000000" d="M384.5291,-289.3008C371.4719,-279.5079 354.8076,-267.0097 340.6258,-256.3733"/>
<polygon fill="#000000" stroke="#000000" points="342.7086,-253.5605 332.6086,-250.3604 338.5086,-259.1605 342.7086,-253.5605"/>
</g>
<!-- Monad -->
<g id="node7" class="node">
<title>Monad</title>
<ellipse fill="none" stroke="#000000" cx="510.7947" cy="-234" rx="36.2938" ry="18"/>
<text text-anchor="middle" x="510.7947" y="-230.3" font-family="Times,serif" font-size="14.00" fill="#000000">Monad</text>
</g>
<!-- Applicative&#45;&gt;Monad -->
<g id="edge5" class="edge">
<title>Applicative&#45;&gt;Monad</title>
<path fill="none" stroke="#000000" d="M430.1343,-289.8418C445.0914,-279.4869 464.649,-265.947 480.7601,-254.7932"/>
<polygon fill="#000000" stroke="#000000" points="483.0753,-257.4473 489.305,-248.8775 479.0908,-251.692 483.0753,-257.4473"/>
</g>
<!-- MonadWriter -->
<g id="node9" class="node">
<title>MonadWriter</title>
<ellipse fill="none" stroke="#000000" cx="59.7947" cy="-162" rx="59.5901" ry="18"/>
<text text-anchor="middle" x="59.7947" y="-158.3" font-family="Times,serif" font-size="14.00" fill="#000000">MonadWriter</text>
</g>
<!-- Monad&#45;&gt;MonadWriter -->
<g id="edge7" class="edge">
<title>Monad&#45;&gt;MonadWriter</title>
<path fill="none" stroke="#000000" d="M483.5834,-221.734C477.8063,-219.5232 471.6743,-217.4605 465.7947,-216 319.607,-179.6883 276.9694,-207.086 128.7947,-180 123.7483,-179.0775 118.5278,-177.9821 113.3217,-176.7938"/>
<polygon fill="#000000" stroke="#000000" points="113.9173,-173.3376 103.3775,-174.4154 112.289,-180.1456 113.9173,-173.3376"/>
</g>
<!-- MonadReader -->
<g id="node10" class="node">
<title>MonadReader</title>
<ellipse fill="none" stroke="#000000" cx="198.7947" cy="-162" rx="61.1893" ry="18"/>
<text text-anchor="middle" x="198.7947" y="-158.3" font-family="Times,serif" font-size="14.00" fill="#000000">MonadReader</text>
</g>
<!-- Monad&#45;&gt;MonadReader -->
<g id="edge8" class="edge">
<title>Monad&#45;&gt;MonadReader</title>
<path fill="none" stroke="#000000" d="M483.4931,-222.071C477.7224,-219.8358 471.616,-217.6779 465.7947,-216 380.2709,-191.3492 355.7277,-199.095 268.7947,-180 264.0647,-178.961 259.1699,-177.8262 254.2675,-176.6481"/>
<polygon fill="#000000" stroke="#000000" points="254.7907,-173.1726 244.2444,-174.1858 253.1206,-179.9705 254.7907,-173.1726"/>
</g>
<!-- MonadState -->
<g id="node11" class="node">
<title>MonadState</title>
<ellipse fill="none" stroke="#000000" cx="331.7947" cy="-162" rx="53.8905" ry="18"/>
<text text-anchor="middle" x="331.7947" y="-158.3" font-family="Times,serif" font-size="14.00" fill="#000000">MonadState</text>
</g>
<!-- Monad&#45;&gt;MonadState -->
<g id="edge9" class="edge">
<title>Monad&#45;&gt;MonadState</title>
<path fill="none" stroke="#000000" d="M482.4316,-222.5914C453.8098,-211.0787 409.2091,-193.1387 375.9556,-179.763"/>
<polygon fill="#000000" stroke="#000000" points="377.0498,-176.4307 366.466,-175.946 374.4375,-182.925 377.0498,-176.4307"/>
</g>
<!-- MonadExcept -->
<g id="node12" class="node">
<title>MonadExcept</title>
<ellipse fill="none" stroke="#000000" cx="694.7947" cy="-162" rx="60.3893" ry="18"/>
<text text-anchor="middle" x="694.7947" y="-158.3" font-family="Times,serif" font-size="14.00" fill="#000000">MonadExcept</text>
</g>
<!-- Monad&#45;&gt;MonadExcept -->
<g id="edge10" class="edge">
<title>Monad&#45;&gt;MonadExcept</title>
<path fill="none" stroke="#000000" d="M539.5447,-222.75C568.7394,-211.326 614.4041,-193.4572 648.6643,-180.051"/>
<polygon fill="#000000" stroke="#000000" points="649.9648,-183.3006 658.0018,-176.3972 647.4139,-176.7819 649.9648,-183.3006"/>
</g>
<!-- MonadFail -->
<g id="node13" class="node">
<title>MonadFail</title>
<ellipse fill="none" stroke="#000000" cx="453.7947" cy="-162" rx="50.0912" ry="18"/>
<text text-anchor="middle" x="453.7947" y="-158.3" font-family="Times,serif" font-size="14.00" fill="#000000">MonadFail</text>
</g>
<!-- Monad&#45;&gt;MonadFail -->
<g id="edge11" class="edge">
<title>Monad&#45;&gt;MonadFail</title>
<path fill="none" stroke="#000000" d="M497.2865,-216.937C490.2907,-208.1003 481.6102,-197.1354 473.8485,-187.3311"/>
<polygon fill="#000000" stroke="#000000" points="476.5531,-185.1087 467.6019,-179.4407 471.0648,-189.4536 476.5531,-185.1087"/>
</g>
<!-- MonadAlt -->
<g id="node14" class="node">
<title>MonadAlt</title>
<ellipse fill="none" stroke="#000000" cx="568.7947" cy="-162" rx="47.3916" ry="18"/>
<text text-anchor="middle" x="568.7947" y="-158.3" font-family="Times,serif" font-size="14.00" fill="#000000">MonadAlt</text>
</g>
<!-- Monad&#45;&gt;MonadAlt -->
<g id="edge12" class="edge">
<title>Monad&#45;&gt;MonadAlt</title>
<path fill="none" stroke="#000000" d="M524.5399,-216.937C531.6584,-208.1003 540.4912,-197.1354 548.3891,-187.3311"/>
<polygon fill="#000000" stroke="#000000" points="551.1976,-189.4239 554.7453,-179.4407 545.7463,-185.0326 551.1976,-189.4239"/>
</g>
<!-- Monad&#45;&gt;MonadFree -->
<g id="edge14" class="edge">
<title>Monad&#45;&gt;MonadFree</title>
<path fill="none" stroke="#000000" d="M540.6121,-223.5538C549.5794,-220.7373 559.5057,-217.9374 568.7947,-216 711.0612,-186.3278 751.3242,-208.6769 893.7947,-180 897.996,-179.1543 902.3255,-178.1514 906.6478,-177.0582"/>
<polygon fill="#000000" stroke="#000000" points="907.9035,-180.3453 916.6563,-174.3754 906.0911,-173.5839 907.9035,-180.3453"/>
</g>
<!-- MonadTrans -->
<g id="node18" class="node">
<title>MonadTrans</title>
<ellipse fill="none" stroke="#000000" cx="828.7947" cy="-162" rx="55.7903" ry="18"/>
<text text-anchor="middle" x="828.7947" y="-158.3" font-family="Times,serif" font-size="14.00" fill="#000000">MonadTrans</text>
</g>
<!-- Monad&#45;&gt;MonadTrans -->
<g id="edge19" class="edge">
<title>Monad&#45;&gt;MonadTrans</title>
<path fill="none" stroke="#000000" d="M541.0073,-223.8818C549.898,-221.1063 559.6841,-218.2463 568.7947,-216 654.3633,-194.9021 677.9117,-199.7792 763.7947,-180 768.1486,-178.9973 772.6486,-177.8936 777.1545,-176.7413"/>
<polygon fill="#000000" stroke="#000000" points="778.1911,-180.0878 786.9734,-174.1615 776.4123,-173.3176 778.1911,-180.0878"/>
</g>
<!-- Monoid -->
<g id="node8" class="node">
<title>Monoid</title>
<ellipse fill="none" stroke="#000000" cx="417.7947" cy="-234" rx="38.9931" ry="18"/>
<text text-anchor="middle" x="417.7947" y="-230.3" font-family="Times,serif" font-size="14.00" fill="#000000">Monoid</text>
</g>
<!-- Monoid&#45;&gt;MonadWriter -->
<g id="edge6" class="edge">
<title>Monoid&#45;&gt;MonadWriter</title>
<path fill="none" stroke="#000000" d="M388.6633,-221.9615C382.5086,-219.7342 375.9979,-217.6072 369.7947,-216 264.9571,-188.8364 234.898,-201.6996 128.7947,-180 123.8426,-178.9872 118.7151,-177.8397 113.594,-176.6261"/>
<polygon fill="#000000" stroke="#000000" points="114.3471,-173.2071 103.8016,-174.2289 112.6826,-180.0064 114.3471,-173.2071"/>
</g>
<!-- MonadStateNondet -->
<g id="node16" class="node">
<title>MonadStateNondet</title>
<ellipse fill="none" stroke="#000000" cx="392.7947" cy="-18" rx="79.0865" ry="18"/>
<text text-anchor="middle" x="392.7947" y="-14.3" font-family="Times,serif" font-size="14.00" fill="#000000">MonadStateNondet</text>
</g>
<!-- MonadState&#45;&gt;MonadStateNondet -->
<g id="edge15" class="edge">
<title>MonadState&#45;&gt;MonadStateNondet</title>
<path fill="none" stroke="#000000" d="M339.397,-144.0535C349.8534,-119.3696 368.7712,-74.7111 381.0536,-45.7167"/>
<polygon fill="#000000" stroke="#000000" points="384.4187,-46.7458 385.0965,-36.1727 377.9731,-44.0154 384.4187,-46.7458"/>
</g>
<!-- MonadNondet -->
<g id="node17" class="node">
<title>MonadNondet</title>
<ellipse fill="none" stroke="#000000" cx="453.7947" cy="-90" rx="61.99" ry="18"/>
<text text-anchor="middle" x="453.7947" y="-86.3" font-family="Times,serif" font-size="14.00" fill="#000000">MonadNondet</text>
</g>
<!-- MonadFail&#45;&gt;MonadNondet -->
<g id="edge17" class="edge">
<title>MonadFail&#45;&gt;MonadNondet</title>
<path fill="none" stroke="#000000" d="M453.7947,-143.8314C453.7947,-136.131 453.7947,-126.9743 453.7947,-118.4166"/>
<polygon fill="#000000" stroke="#000000" points="457.2948,-118.4132 453.7947,-108.4133 450.2948,-118.4133 457.2948,-118.4132"/>
</g>
<!-- MonadAlt&#45;&gt;MonadNondet -->
<g id="edge18" class="edge">
<title>MonadAlt&#45;&gt;MonadNondet</title>
<path fill="none" stroke="#000000" d="M544.1243,-146.5542C527.9033,-136.3985 506.4403,-122.9607 488.506,-111.7323"/>
<polygon fill="#000000" stroke="#000000" points="490.3569,-108.7618 480.0237,-106.4217 486.6423,-114.6949 490.3569,-108.7618"/>
</g>
<!-- MonadNondet&#45;&gt;MonadStateNondet -->
<g id="edge16" class="edge">
<title>MonadNondet&#45;&gt;MonadStateNondet</title>
<path fill="none" stroke="#000000" d="M438.716,-72.2022C431.3842,-63.5483 422.439,-52.99 414.3979,-43.4988"/>
<polygon fill="#000000" stroke="#000000" points="417.046,-41.2099 407.9113,-35.8425 411.7051,-45.7349 417.046,-41.2099"/>
</g>
</g>
</svg>
